<svg width="151" height="106" viewBox="0 0 151 106" fill="none" xmlns="http://www.w3.org/2000/svg">
<g clip-path="url(#clip0_36_208)">
<path d="M30.996 62.4128L41.5146 61.3001L33.6984 48.7558L30.996 62.4128Z" fill="white"/>
<path d="M126.314 17.0085L20.4821 24.2392L33.7088 45.4679L126.314 17.0085Z" fill="white"/>
<path d="M47.6923 67.9097L89.118 41.9836L127.073 18.2214L34.469 46.6809L47.6923 67.9097Z" fill="white"/>
<path d="M17.2892 87.0572V87.0975H16.8072C16.8139 87.1324 16.8316 87.1584 16.8611 87.1755C16.8898 87.1915 16.9319 87.1992 16.9858 87.1992C17.0305 87.1992 17.0751 87.1957 17.1206 87.1874C17.1653 87.1779 17.2116 87.1637 17.2588 87.1448V87.256C17.2116 87.2702 17.1628 87.2808 17.1139 87.2867C17.0642 87.2927 17.0161 87.2962 16.969 87.2962C16.8518 87.2962 16.7608 87.2761 16.696 87.2347C16.6302 87.1921 16.5982 87.133 16.5982 87.0572C16.5982 86.9851 16.6294 86.9271 16.6926 86.8845C16.7575 86.8419 16.8451 86.8206 16.9555 86.8206C17.0566 86.8206 17.1375 86.8419 17.1982 86.8845C17.2588 86.9271 17.2892 86.9851 17.2892 87.0572ZM17.0802 87.0076C17.0802 86.9809 17.0676 86.9596 17.0431 86.9437C17.0204 86.9265 16.9909 86.9176 16.9555 86.9176C16.915 86.9176 16.8822 86.9259 16.8577 86.9413C16.8325 86.9573 16.8173 86.9792 16.8106 87.0076L17.0802 87.0076Z" fill="white"/>
<path d="M17.7349 87.0809C17.692 87.0809 17.6591 87.0868 17.6372 87.0974C17.617 87.1069 17.6069 87.1223 17.6069 87.1424C17.6069 87.1601 17.6144 87.1743 17.6304 87.185C17.6481 87.1945 17.6726 87.1992 17.7046 87.1992C17.7425 87.1992 17.7754 87.1897 17.8023 87.1708C17.8293 87.1519 17.8428 87.1276 17.8428 87.0974V87.0809H17.7349ZM18.0518 87.0265V87.2844H17.8428V87.2181C17.8158 87.2453 17.7838 87.2648 17.7484 87.2773C17.7147 87.2897 17.6726 87.2962 17.6237 87.2962C17.5563 87.2962 17.5007 87.2832 17.4586 87.256C17.4181 87.2276 17.3979 87.1921 17.3979 87.1495C17.3979 87.0963 17.4232 87.0566 17.4754 87.0312C17.5268 87.0063 17.6085 86.9933 17.7215 86.9933H17.8428V86.9839C17.8428 86.9602 17.8293 86.9436 17.8023 86.9342C17.7771 86.9235 17.7383 86.9176 17.6844 86.9176C17.6389 86.9176 17.5976 86.9212 17.5597 86.9271C17.5209 86.9336 17.4864 86.9425 17.4552 86.9531V86.8443C17.4973 86.8366 17.5411 86.8313 17.5866 86.8277C17.6313 86.823 17.676 86.8206 17.7215 86.8206C17.8377 86.8206 17.922 86.8372 17.9743 86.8703C18.0257 86.9022 18.0518 86.9543 18.0518 87.0265Z" fill="white"/>
<path d="M18.4671 86.7023V86.8324H18.6795V86.9342H18.4671V87.1282C18.4671 87.1489 18.4722 87.1631 18.484 87.1708C18.4975 87.1773 18.5219 87.1803 18.5582 87.1803H18.6626V87.2844H18.4874C18.404 87.2844 18.3458 87.2725 18.3121 87.2489C18.2784 87.2252 18.2615 87.185 18.2615 87.1282V86.9342H18.1604V86.8324H18.2615V86.7023L18.4671 86.7023Z" fill="white"/>
<path d="M19.4488 87.0572V87.0975H18.9668C18.9736 87.1324 18.9913 87.1584 19.0208 87.1755C19.0494 87.1915 19.0916 87.1992 19.1455 87.1992C19.1901 87.1992 19.2348 87.1957 19.2803 87.1874C19.325 87.1779 19.3713 87.1637 19.4185 87.1448V87.256C19.3713 87.2702 19.3224 87.2808 19.2736 87.2867C19.2238 87.2927 19.1758 87.2962 19.1286 87.2962C19.0115 87.2962 18.9205 87.2761 18.8556 87.2347C18.7899 87.1921 18.7579 87.133 18.7579 87.0572C18.7579 86.9851 18.7891 86.9271 18.8522 86.8845C18.9171 86.8419 19.0048 86.8206 19.1152 86.8206C19.2163 86.8206 19.2972 86.8419 19.3578 86.8845C19.4185 86.9271 19.4488 86.9851 19.4488 87.0572ZM19.2399 87.0076C19.2399 86.9809 19.2272 86.9596 19.2028 86.9437C19.18 86.9265 19.1505 86.9176 19.1152 86.9176C19.0747 86.9176 19.0418 86.9259 19.0174 86.9413C18.9921 86.9573 18.977 86.9792 18.9702 87.0076L19.2399 87.0076Z" fill="white"/>
<path d="M20.0471 86.8987V86.655H20.2527V87.2844H20.0471V87.2181C20.0176 87.2453 19.9864 87.2648 19.9527 87.2773C19.919 87.2897 19.8794 87.2962 19.8348 87.2962C19.7539 87.2962 19.6873 87.2743 19.6359 87.2299C19.5862 87.1862 19.5617 87.1282 19.5617 87.0572C19.5617 86.988 19.5862 86.9312 19.6359 86.8869C19.6873 86.8431 19.7539 86.8206 19.8348 86.8206C19.8769 86.8206 19.9156 86.8271 19.9493 86.8395C19.9847 86.8526 20.0176 86.8721 20.0471 86.8987ZM19.9089 87.1921C19.9536 87.1921 19.9873 87.1815 20.01 87.159C20.0345 87.1353 20.0471 87.1016 20.0471 87.0572C20.0471 87.0146 20.0345 86.9827 20.01 86.9602C19.9873 86.9366 19.9536 86.9247 19.9089 86.9247C19.8659 86.9247 19.8322 86.9366 19.8078 86.9602C19.785 86.9827 19.7741 87.0146 19.7741 87.0572C19.7741 87.1016 19.785 87.1353 19.8078 87.159C19.8322 87.1815 19.8659 87.1921 19.9089 87.1921Z" fill="white"/>
<path d="M21.204 87.1921C21.2487 87.1921 21.2824 87.1815 21.3051 87.159C21.3296 87.1353 21.3422 87.1016 21.3422 87.0572C21.3422 87.0146 21.3296 86.9827 21.3051 86.9602C21.2824 86.9366 21.2487 86.9247 21.204 86.9247C21.161 86.9247 21.1273 86.9366 21.1029 86.9602C21.0802 86.9827 21.0692 87.0146 21.0692 87.0572C21.0692 87.1016 21.0802 87.1353 21.1029 87.159C21.1273 87.1815 21.161 87.1921 21.204 87.1921ZM21.0692 86.8987C21.0962 86.8721 21.1265 86.8526 21.1602 86.8396C21.1956 86.8271 21.236 86.8206 21.2815 86.8206C21.3599 86.8206 21.4248 86.8431 21.477 86.8869C21.5284 86.9312 21.5546 86.988 21.5546 87.0572C21.5546 87.1282 21.5284 87.1862 21.477 87.23C21.4248 87.2743 21.3599 87.2962 21.2815 87.2962C21.236 87.2962 21.1956 87.2897 21.1602 87.2773C21.1265 87.2649 21.0962 87.2453 21.0692 87.2181V87.2844H20.8602V86.655H21.0692V86.8987Z" fill="white"/>
<path d="M21.6211 86.8325H21.8267L22.002 87.1377L22.1503 86.8325H22.3559L22.0829 87.327C22.0559 87.3772 22.0239 87.4127 21.9885 87.4334C21.9523 87.4535 21.9043 87.4642 21.8436 87.4642H21.7256V87.3672H21.7897C21.825 87.3672 21.8512 87.363 21.8672 87.3554C21.8823 87.3471 21.895 87.3341 21.9043 87.3151L21.911 87.3009L21.6211 86.8325Z" fill="white"/>
<path d="M22.8851 86.8325H23.0941V87.2844H22.8851V86.8325ZM22.8851 86.655H23.0941V86.7733H22.8851V86.655Z" fill="white"/>
<path d="M23.6325 87.1921C23.6772 87.1921 23.7109 87.1815 23.7336 87.159C23.7581 87.1353 23.7707 87.1016 23.7707 87.0572C23.7707 87.0146 23.7581 86.9827 23.7336 86.9602C23.7109 86.9366 23.6772 86.9247 23.6325 86.9247C23.5895 86.9247 23.5558 86.9366 23.5314 86.9602C23.5087 86.9827 23.4977 87.0146 23.4977 87.0572C23.4977 87.1016 23.5087 87.1353 23.5314 87.159C23.5558 87.1815 23.5895 87.1921 23.6325 87.1921ZM23.4977 86.8987C23.5247 86.8721 23.555 86.8526 23.5887 86.8396C23.6241 86.8271 23.6645 86.8206 23.71 86.8206C23.7884 86.8206 23.8533 86.8431 23.9055 86.8869C23.9569 86.9312 23.9831 86.988 23.9831 87.0572C23.9831 87.1282 23.9569 87.1862 23.9055 87.23C23.8533 87.2743 23.7884 87.2962 23.71 87.2962C23.6645 87.2962 23.6241 87.2897 23.5887 87.2773C23.555 87.2649 23.5247 87.2453 23.4977 87.2181V87.2844H23.2887V86.655H23.4977V86.8987Z" fill="white"/>
<path d="M24.6159 86.9555C24.5973 86.9496 24.5796 86.9448 24.5619 86.9413C24.5434 86.9383 24.5257 86.9365 24.508 86.9365C24.4541 86.9365 24.4119 86.9496 24.3833 86.9744C24.3563 86.9981 24.3429 87.0324 24.3429 87.0761V87.2844H24.1339V86.8324H24.3429V86.9058C24.3673 86.8762 24.3968 86.8549 24.4305 86.8419C24.4659 86.8277 24.508 86.8206 24.5552 86.8206H24.5788C24.5872 86.8206 24.599 86.8218 24.6125 86.823L24.6159 86.9555Z" fill="white"/>
<path d="M25.0052 87.0809C24.9622 87.0809 24.9293 87.0868 24.9074 87.0974C24.8872 87.1069 24.8771 87.1223 24.8771 87.1424C24.8771 87.1601 24.8847 87.1743 24.9007 87.185C24.9184 87.1945 24.9428 87.1992 24.9748 87.1992C25.0127 87.1992 25.0456 87.1897 25.0726 87.1708C25.0995 87.1519 25.113 87.1276 25.113 87.0974V87.0809H25.0052ZM25.322 87.0265V87.2844H25.113V87.2181C25.0861 87.2453 25.054 87.2648 25.0187 87.2773C24.9849 87.2897 24.9428 87.2962 24.8939 87.2962C24.8265 87.2962 24.7709 87.2832 24.7288 87.256C24.6883 87.2276 24.6681 87.1921 24.6681 87.1495C24.6681 87.0963 24.6934 87.0566 24.7456 87.0312C24.797 87.0063 24.8788 86.9933 24.9917 86.9933H25.113V86.9839C25.113 86.9602 25.0995 86.9436 25.0726 86.9342C25.0473 86.9235 25.0085 86.9176 24.9546 86.9176C24.9091 86.9176 24.8678 86.9212 24.8299 86.9271C24.7911 86.9336 24.7566 86.9425 24.7254 86.9531V86.8443C24.7675 86.8366 24.8114 86.8313 24.8569 86.8277C24.9015 86.823 24.9462 86.8206 24.9917 86.8206C25.108 86.8206 25.1922 86.8372 25.2445 86.8703C25.2959 86.9022 25.322 86.9543 25.322 87.0265Z" fill="white"/>
<path d="M26.1621 87.0075V87.2844H25.9531V87.0738C25.9531 87.0348 25.9515 87.0075 25.9498 86.9934C25.9472 86.978 25.943 86.9667 25.9363 86.9602C25.9295 86.9508 25.9177 86.9437 25.9026 86.9389C25.8891 86.933 25.8739 86.9295 25.8588 86.9295C25.8133 86.9295 25.7787 86.9413 25.7543 86.965C25.7315 86.9886 25.7206 87.0212 25.7206 87.062V87.2844H25.5116V86.8325H25.7206V86.8987C25.7492 86.8721 25.7821 86.8526 25.8183 86.8396C25.8537 86.8271 25.8925 86.8206 25.9329 86.8206C26.0071 86.8206 26.0627 86.8372 26.1014 86.8703C26.1419 86.9023 26.1621 86.9478 26.1621 87.0075Z" fill="white"/>
<path d="M26.7924 86.8987V86.655H26.998V87.2844H26.7924V87.2181C26.7629 87.2453 26.7317 87.2648 26.698 87.2773C26.6643 87.2897 26.6247 87.2962 26.5801 87.2962C26.4992 87.2962 26.4326 87.2743 26.3812 87.2299C26.3315 87.1862 26.307 87.1282 26.307 87.0572C26.307 86.988 26.3315 86.9312 26.3812 86.8869C26.4326 86.8431 26.4992 86.8206 26.5801 86.8206C26.6222 86.8206 26.6609 86.8271 26.6947 86.8395C26.73 86.8526 26.7629 86.8721 26.7924 86.8987ZM26.6542 87.1921C26.6989 87.1921 26.7326 87.1815 26.7553 87.159C26.7798 87.1353 26.7924 87.1016 26.7924 87.0572C26.7924 87.0146 26.7798 86.9827 26.7553 86.9602C26.7326 86.9366 26.6989 86.9247 26.6542 86.9247C26.6112 86.9247 26.5775 86.9366 26.5531 86.9602C26.5303 86.9827 26.5194 87.0146 26.5194 87.0572C26.5194 87.1016 26.5303 87.1353 26.5531 87.159C26.5775 87.1815 26.6112 87.1921 26.6542 87.1921Z" fill="white"/>
<path d="M27.196 86.8325H27.405V87.2844H27.196V86.8325ZM27.196 86.655H27.405V86.7733H27.196V86.655Z" fill="white"/>
<path d="M28.0243 86.655V86.7497H27.9131C27.8836 86.7497 27.8625 86.7538 27.8491 86.7615C27.8373 86.7698 27.8322 86.7822 27.8322 86.7993V86.8325H28.0108V86.9342H27.8322V87.2844H27.6266V86.9342H27.5255V86.8325H27.6266V86.7993C27.6266 86.7508 27.6451 86.7142 27.6839 86.6905C27.7243 86.6668 27.7859 86.655 27.8693 86.655L28.0243 86.655Z" fill="white"/>
<path d="M15.6224 87.4831V87.5778H15.5112C15.4817 87.5778 15.4606 87.5819 15.4472 87.5896C15.4354 87.5979 15.4303 87.6103 15.4303 87.6275V87.6606H15.609V87.7623H15.4303V88.1125H15.2247V87.7623H15.1236V87.6606H15.2247V87.6275C15.2247 87.579 15.2433 87.5423 15.282 87.5186C15.3225 87.495 15.384 87.4831 15.4674 87.4831L15.6224 87.4831Z" fill="white"/>
<path d="M16.1929 87.7836C16.1744 87.7777 16.1567 87.773 16.139 87.7694C16.1204 87.7665 16.1027 87.7647 16.085 87.7647C16.0311 87.7647 15.989 87.7777 15.9603 87.8025C15.9334 87.8262 15.9199 87.8605 15.9199 87.9043V88.1125H15.7109V87.6606H15.9199V87.7339C15.9443 87.7043 15.9738 87.6831 16.0075 87.67C16.0429 87.6558 16.085 87.6487 16.1322 87.6487H16.1558C16.1642 87.6487 16.176 87.6499 16.1895 87.6511L16.1929 87.7836Z" fill="white"/>
<path d="M16.5999 87.7529C16.5544 87.7529 16.5198 87.7647 16.4954 87.7884C16.4726 87.8108 16.4617 87.8428 16.4617 87.8854C16.4617 87.9297 16.4726 87.9634 16.4954 87.9871C16.5198 88.0096 16.5544 88.0202 16.5999 88.0202C16.6445 88.0202 16.6791 88.0096 16.7044 87.9871C16.7288 87.9634 16.7414 87.9297 16.7414 87.8854C16.7414 87.8428 16.7288 87.8108 16.7044 87.7884C16.6791 87.7647 16.6445 87.7529 16.5999 87.7529ZM16.5999 87.6488C16.7119 87.6488 16.7987 87.6701 16.8594 87.7126C16.9218 87.754 16.9538 87.8114 16.9538 87.8854C16.9538 87.9611 16.9218 88.0202 16.8594 88.0628C16.7987 88.1042 16.7119 88.1243 16.5999 88.1243C16.4895 88.1243 16.4027 88.1042 16.3403 88.0628C16.2771 88.0202 16.246 87.9611 16.246 87.8854C16.246 87.8114 16.2771 87.754 16.3403 87.7126C16.4027 87.6701 16.4895 87.6488 16.5999 87.6488Z" fill="white"/>
<path d="M17.7029 87.7339C17.7273 87.7073 17.7577 87.6866 17.7939 87.6724C17.8293 87.657 17.8697 87.6488 17.9152 87.6488C17.9869 87.6488 18.0416 87.6653 18.0804 87.6984C18.1208 87.7304 18.1411 87.7759 18.1411 87.8357V88.1125H17.9321V87.8759C17.9338 87.8729 17.9355 87.87 17.9355 87.8664V87.8499C17.9355 87.8167 17.9287 87.7931 17.9152 87.7789C17.9018 87.7647 17.8798 87.7576 17.8512 87.7576C17.8107 87.7576 17.7787 87.7694 17.7568 87.7931C17.7366 87.8156 17.7265 87.8475 17.7265 87.8901V88.1125H17.5175V87.8759C17.5175 87.8256 17.5108 87.7931 17.4973 87.7789C17.4855 87.7647 17.4644 87.7576 17.4332 87.7576C17.3945 87.7576 17.3642 87.7694 17.3422 87.7931C17.322 87.8156 17.3119 87.8475 17.3119 87.8901V88.1125H17.1029V87.6606H17.3119V87.7268C17.3363 87.7002 17.3642 87.6807 17.3962 87.6677C17.4299 87.6553 17.467 87.6488 17.5074 87.6488C17.5521 87.6488 17.5917 87.657 17.6254 87.6724C17.6591 87.6866 17.6844 87.7073 17.7029 87.7339Z" fill="white"/>
<path d="M18.9694 87.5304V87.6606H19.1817V87.7623H18.9694V87.9563C18.9694 87.977 18.9744 87.9912 18.9862 87.9989C18.9997 88.0054 19.0241 88.0084 19.0604 88.0084H19.1649V88.1125H18.9896C18.9062 88.1125 18.848 88.1007 18.8143 88.077C18.7806 88.0533 18.7638 88.0131 18.7638 87.9563V87.7623H18.6627V87.6606H18.7638V87.5304L18.9694 87.5304Z" fill="white"/>
<path d="M20.7903 87.8854V87.9256H20.3083C20.315 87.9605 20.3327 87.9865 20.3622 88.0037C20.3909 88.0196 20.433 88.0273 20.4869 88.0273C20.5316 88.0273 20.5763 88.0238 20.6218 88.0155C20.6664 88.006 20.7128 87.9918 20.76 87.9729V88.0841C20.7128 88.0983 20.6639 88.109 20.615 88.1149C20.5653 88.1208 20.5173 88.1243 20.4701 88.1243C20.353 88.1243 20.262 88.1042 20.1971 88.0628C20.1314 88.0202 20.0993 87.9611 20.0993 87.8854C20.0993 87.8132 20.1305 87.7552 20.1937 87.7126C20.2586 87.6701 20.3462 87.6488 20.4566 87.6488C20.5577 87.6488 20.6386 87.6701 20.6993 87.7126C20.76 87.7552 20.7903 87.8132 20.7903 87.8854ZM20.5813 87.8357C20.5813 87.8091 20.5687 87.7878 20.5442 87.7718C20.5215 87.7546 20.492 87.7458 20.4566 87.7458C20.4162 87.7458 20.3833 87.754 20.3589 87.7694C20.3336 87.7854 20.3184 87.8073 20.3117 87.8357L20.5813 87.8357Z" fill="white"/>
<path d="M21.3675 87.5092H21.6169L21.927 87.9232V87.5092H22.1393V88.1125H21.8899L21.5798 87.6984V88.1125H21.3675V87.5092Z" fill="white"/>
<path d="M22.6517 87.7529C22.6062 87.7529 22.5716 87.7647 22.5472 87.7884C22.5245 87.8108 22.5135 87.8428 22.5135 87.8854C22.5135 87.9297 22.5245 87.9634 22.5472 87.9871C22.5716 88.0096 22.6062 88.0202 22.6517 88.0202C22.6964 88.0202 22.7309 88.0096 22.7562 87.9871C22.7806 87.9634 22.7933 87.9297 22.7933 87.8854C22.7933 87.8428 22.7806 87.8108 22.7562 87.7884C22.7309 87.7647 22.6964 87.7529 22.6517 87.7529ZM22.6517 87.6488C22.7638 87.6488 22.8506 87.6701 22.9112 87.7126C22.9736 87.754 23.0056 87.8114 23.0056 87.8854C23.0056 87.9611 22.9736 88.0202 22.9112 88.0628C22.8505 88.1042 22.7638 88.1243 22.6517 88.1243C22.5413 88.1243 22.4545 88.1042 22.3922 88.0628C22.329 88.0202 22.2978 87.9611 22.2978 87.8854C22.2978 87.8114 22.329 87.754 22.3922 87.7126C22.4545 87.6701 22.5413 87.6488 22.6517 87.6488Z" fill="white"/>
<path d="M23.1488 87.935V87.6606H23.3578V87.7055V87.7978V87.8712C23.3578 87.9078 23.3587 87.9344 23.3612 87.9516C23.3629 87.9676 23.3679 87.9788 23.3747 87.9847C23.3831 87.9942 23.3949 88.0025 23.4084 88.0084C23.4218 88.0131 23.437 88.0155 23.4556 88.0155C23.4977 88.0155 23.5314 88.0037 23.5567 87.98C23.5811 87.9563 23.5937 87.9244 23.5937 87.883V87.6606H23.7993V88.1125H23.5937V88.0462C23.5617 88.0735 23.528 88.093 23.4926 88.1054C23.4589 88.1178 23.4202 88.1243 23.378 88.1243C23.3039 88.1243 23.2466 88.1089 23.2061 88.077C23.1674 88.0439 23.1488 87.9966 23.1488 87.935Z" fill="white"/>
<path d="M24.6462 87.8357V88.1125H24.4372V87.9019C24.4372 87.8629 24.4356 87.8357 24.4339 87.8215C24.4313 87.8061 24.4271 87.7949 24.4204 87.7884C24.4136 87.7789 24.4018 87.7718 24.3867 87.7671C24.3732 87.7611 24.358 87.7576 24.3429 87.7576C24.2974 87.7576 24.2628 87.7694 24.2384 87.7931C24.2156 87.8167 24.2047 87.8493 24.2047 87.8901V88.1125H23.9957V87.6606H24.2047V87.7268C24.2333 87.7002 24.2662 87.6807 24.3024 87.6677C24.3378 87.6553 24.3766 87.6488 24.417 87.6488C24.4912 87.6488 24.5468 87.6653 24.5855 87.6984C24.626 87.7304 24.6462 87.7759 24.6462 87.8357Z" fill="white"/>
<path d="M25.2563 87.5092H25.6236C25.7332 87.5092 25.8174 87.5269 25.8764 87.5612C25.9346 87.5943 25.9641 87.6428 25.9641 87.7055C25.9641 87.7688 25.9346 87.8179 25.8764 87.8522C25.8174 87.8854 25.7332 87.9019 25.6236 87.9019H25.4787V88.1125H25.2563L25.2563 87.5092ZM25.4787 87.6227V87.7907H25.6C25.6422 87.7907 25.675 87.7836 25.6978 87.7694C25.7222 87.754 25.7349 87.7328 25.7349 87.7055C25.7349 87.6789 25.7222 87.6582 25.6978 87.644C25.675 87.6298 25.6422 87.6227 25.6 87.6227L25.4787 87.6227Z" fill="white"/>
<path d="M26.5927 87.7836C26.5741 87.7777 26.5564 87.773 26.5387 87.7694C26.5202 87.7665 26.5025 87.7647 26.4848 87.7647C26.4309 87.7647 26.3888 87.7777 26.3601 87.8025C26.3331 87.8262 26.3197 87.8605 26.3197 87.9043V88.1125H26.1107V87.6606H26.3197V87.7339C26.3441 87.7043 26.3736 87.6831 26.4073 87.67C26.4427 87.6558 26.4848 87.6487 26.532 87.6487H26.5556C26.564 87.6487 26.5758 87.6499 26.5893 87.6511L26.5927 87.7836Z" fill="white"/>
<path d="M26.9988 87.7529C26.9533 87.7529 26.9188 87.7647 26.8943 87.7884C26.8716 87.8108 26.8606 87.8428 26.8606 87.8854C26.8606 87.9297 26.8716 87.9634 26.8943 87.9871C26.9188 88.0096 26.9533 88.0202 26.9988 88.0202C27.0435 88.0202 27.078 88.0096 27.1033 87.9871C27.1278 87.9634 27.1404 87.9297 27.1404 87.8854C27.1404 87.8428 27.1278 87.8108 27.1033 87.7884C27.078 87.7647 27.0435 87.7529 26.9988 87.7529ZM26.9988 87.6488C27.1109 87.6488 27.1977 87.6701 27.2584 87.7126C27.3207 87.754 27.3527 87.8114 27.3527 87.8854C27.3527 87.9611 27.3207 88.0202 27.2584 88.0628C27.1977 88.1042 27.1109 88.1243 26.9988 88.1243C26.8884 88.1243 26.8017 88.1042 26.7393 88.0628C26.6761 88.0202 26.6449 87.9611 26.6449 87.8854C26.6449 87.8114 26.6761 87.754 26.7393 87.7126C26.8017 87.6701 26.8884 87.6488 26.9988 87.6488Z" fill="white"/>
<path d="M28.5509 87.8854V87.9256H28.069C28.0757 87.9605 28.0934 87.9865 28.1229 88.0037C28.1515 88.0196 28.1937 88.0273 28.2476 88.0273C28.2923 88.0273 28.3369 88.0238 28.3824 88.0155C28.4271 88.006 28.4734 87.9918 28.5206 87.9729V88.0841C28.4734 88.0983 28.4245 88.109 28.3757 88.1149C28.326 88.1208 28.2779 88.1243 28.2307 88.1243C28.1136 88.1243 28.0226 88.1042 27.9577 88.0628C27.892 88.0202 27.86 87.9611 27.86 87.8854C27.86 87.8132 27.8912 87.7552 27.9544 87.7126C28.0192 87.6701 28.1069 87.6488 28.2173 87.6488C28.3184 87.6488 28.3993 87.6701 28.46 87.7126C28.5206 87.7552 28.5509 87.8132 28.5509 87.8854ZM28.342 87.8357C28.342 87.8091 28.3293 87.7878 28.3049 87.7718C28.2821 87.7546 28.2527 87.7458 28.2173 87.7458C28.1768 87.7458 28.144 87.754 28.1195 87.7694C28.0942 87.7854 28.0791 87.8073 28.0723 87.8357L28.342 87.8357Z" fill="white"/>
<path d="M29.2293 87.6748V87.7907C29.2023 87.7783 29.1737 87.7688 29.145 87.7623C29.1155 87.7564 29.086 87.7529 29.0574 87.7529C28.9984 87.7529 28.9537 87.7647 28.9226 87.7884C28.8905 87.812 28.8754 87.8445 28.8754 87.8854C28.8754 87.928 28.8905 87.9611 28.9226 87.9847C28.9537 88.0084 28.9984 88.0202 29.0574 88.0202C29.0886 88.0202 29.1189 88.0173 29.1484 88.0108C29.177 88.0049 29.204 87.9942 29.2293 87.98V88.0983C29.1973 88.1078 29.1652 88.1137 29.1315 88.1172C29.0978 88.122 29.0641 88.1243 29.0304 88.1243C28.9133 88.1243 28.8223 88.1042 28.7574 88.0628C28.6917 88.0202 28.6597 87.9611 28.6597 87.8854C28.6597 87.8114 28.6917 87.754 28.7574 87.7126C28.8223 87.6701 28.9133 87.6488 29.0304 87.6488C29.0641 87.6488 29.0978 87.6511 29.1315 87.6559C29.1652 87.6594 29.1973 87.6653 29.2293 87.6748Z" fill="white"/>
<path d="M29.6321 87.5304V87.6606H29.8444V87.7623H29.6321V87.9563C29.6321 87.977 29.6371 87.9912 29.6489 87.9989C29.6624 88.0054 29.6868 88.0084 29.7231 88.0084H29.8276V88.1125H29.6523C29.5689 88.1125 29.5107 88.1007 29.477 88.077C29.4433 88.0533 29.4265 88.0131 29.4265 87.9563V87.7623H29.3253V87.6606H29.4265V87.5304L29.6321 87.5304Z" fill="white"/>
</g>
<defs>
<clipPath id="clip0_36_208">
<rect width="151" height="106" fill="white"/>
</clipPath>
</defs>
</svg>
